<svg xmlns="http://www.w3.org/2000/svg" width="43" height="43" viewBox="0 0 512 512" version="1.1">
<path d="M 57 132.551 L 57 135.636 65.605 136.787 C 76.389 138.230, 79.800 140.138, 83 146.517 L 85.500 151.500 85.821 252 C 86.175 362.817, 86.135 363.718, 80.634 369.678 C 77.114 373.492, 69.702 375.968, 61.750 375.988 L 57 376 57 379.750 L 57 383.500 150.250 383.248 C 201.537 383.110, 243.425 382.660, 243.334 382.248 C 242.359 377.844, 240.877 334.521, 241.368 324.750 L 242.008 312 238.004 312 C 235.802 312, 234 312.405, 234 312.901 C 234 315.455, 229.786 337.943, 228.389 342.841 C 224.501 356.479, 215.946 367.006, 205.607 370.874 C 195.661 374.595, 188.431 375.337, 162 375.347 C 134.074 375.357, 129.562 374.716, 124.923 370.077 C 119.836 364.990, 119.623 362.567, 119.559 309 L 119.500 259.500 136.500 259.500 C 153.389 259.500, 153.539 259.520, 159.500 262.500 C 163.961 264.731, 166.327 266.737, 168.723 270.323 C 172.528 276.016, 173.500 279.157, 175.588 292.500 C 178.053 308.251, 177.498 307, 182.023 307 L 186.009 307 185.254 295.250 C 184.839 288.788, 184.500 265.817, 184.500 244.204 L 184.500 204.909 180.532 205.204 L 176.565 205.500 174.708 216.912 C 172.258 231.963, 169.854 238.128, 164.131 244.030 C 157.639 250.724, 152.767 252, 133.706 252 L 118.776 252 119.267 202.750 C 119.614 167.993, 120.118 152.337, 120.982 149.547 C 122.991 143.059, 127.417 139.481, 135.087 138.145 C 143.265 136.721, 181.134 136.642, 191.678 138.028 C 202.593 139.462, 211.243 143.904, 215.657 150.342 C 220.656 157.633, 222.457 164.295, 226.584 190.750 C 227.050 193.742, 227.385 194, 230.803 194 L 234.516 194 234.508 173.250 C 234.504 161.838, 234.863 147.325, 235.306 141 L 236.113 129.500 146.556 129.483 L 57 129.466 57 132.551 M 276 132.609 C 276 135.712, 276.059 135.748, 282.250 136.425 C 296.731 138.008, 301.928 141.518, 303.907 151.053 C 304.726 154.999, 304.969 185.291, 304.773 259.019 L 304.500 361.500 302.289 366.289 C 299.573 372.172, 294.670 374.688, 283.808 375.771 L 276.500 376.500 276.205 380 L 275.909 383.500 325.455 383.500 L 375 383.500 375 379.898 L 375 376.296 366.250 375.703 C 355.408 374.969, 348.598 372.948, 344.841 369.347 C 339.272 364.012, 339 361.241, 339 309.818 L 339 263 355.818 263 C 376.554 263, 381.549 264.179, 387.643 270.508 C 392.990 276.063, 395.530 282.999, 397.702 297.984 L 399.444 310 403.756 310 L 408.069 310 407.565 305.250 C 405.888 289.441, 405.111 219.257, 406.529 211.699 L 407.223 208 402.798 208 L 398.374 208 396.734 218.750 C 393.580 239.420, 389.559 247.386, 379.757 252.382 C 374.204 255.213, 373.431 255.326, 356.507 255.791 L 339 256.273 339 206.186 C 339 153.259, 339.371 148.090, 343.519 143.160 C 347.292 138.676, 351.681 137.816, 373.500 137.289 C 411.412 136.374, 424.680 139.918, 433.740 153.382 C 438.775 160.864, 442.165 174.091, 445.494 199.250 L 446.123 204 450.108 204 L 454.093 204 453.434 187.750 C 452.842 173.143, 454.219 136.961, 455.573 131.561 L 456.090 129.500 366.045 129.488 L 276 129.476 276 132.609" stroke="none" fill="#fafafc" fill-rule="evenodd"/><path d="M 37.688 1.502 C 20.428 6.246, 6.078 20.753, 1.453 38.131 C -0.692 46.190, -0.692 465.810, 1.453 473.869 C 6.142 491.486, 20.514 505.858, 38.131 510.547 C 46.190 512.692, 465.810 512.692, 473.869 510.547 C 491.313 505.904, 507.636 489.518, 510.536 473.739 C 510.916 471.670, 511.626 469.731, 512.113 469.430 C 512.624 469.114, 513 378.229, 513 254.882 C 513 130.040, 512.629 41.111, 512.110 41.432 C 511.620 41.735, 510.910 40.299, 510.532 38.241 C 507.636 22.482, 491.303 6.093, 473.869 1.453 C 466.164 -0.598, 45.154 -0.551, 37.688 1.502 M 0.491 256 C 0.491 373.975, 0.607 422.238, 0.750 363.250 C 0.892 304.263, 0.892 207.738, 0.750 148.750 C 0.607 89.763, 0.491 138.025, 0.491 256 M 57 132.551 L 57 135.636 65.605 136.787 C 76.389 138.230, 79.800 140.138, 83 146.517 L 85.500 151.500 85.821 252 C 86.175 362.817, 86.135 363.718, 80.634 369.678 C 77.114 373.492, 69.702 375.968, 61.750 375.988 L 57 376 57 379.750 L 57 383.500 150.250 383.248 C 201.537 383.110, 243.425 382.660, 243.334 382.248 C 242.359 377.844, 240.877 334.521, 241.368 324.750 L 242.008 312 238.004 312 C 235.802 312, 234 312.405, 234 312.901 C 234 315.455, 229.786 337.943, 228.389 342.841 C 224.501 356.479, 215.946 367.006, 205.607 370.874 C 195.661 374.595, 188.431 375.337, 162 375.347 C 134.074 375.357, 129.562 374.716, 124.923 370.077 C 119.836 364.990, 119.623 362.567, 119.559 309 L 119.500 259.500 136.500 259.500 C 153.389 259.500, 153.539 259.520, 159.500 262.500 C 163.961 264.731, 166.327 266.737, 168.723 270.323 C 172.528 276.016, 173.500 279.157, 175.588 292.500 C 178.053 308.251, 177.498 307, 182.023 307 L 186.009 307 185.254 295.250 C 184.839 288.788, 184.500 265.817, 184.500 244.204 L 184.500 204.909 180.532 205.204 L 176.565 205.500 174.708 216.912 C 172.258 231.963, 169.854 238.128, 164.131 244.030 C 157.639 250.724, 152.767 252, 133.706 252 L 118.776 252 119.267 202.750 C 119.614 167.993, 120.118 152.337, 120.982 149.547 C 122.991 143.059, 127.417 139.481, 135.087 138.145 C 143.265 136.721, 181.134 136.642, 191.678 138.028 C 202.593 139.462, 211.243 143.904, 215.657 150.342 C 220.656 157.633, 222.457 164.295, 226.584 190.750 C 227.050 193.742, 227.385 194, 230.803 194 L 234.516 194 234.508 173.250 C 234.504 161.838, 234.863 147.325, 235.306 141 L 236.113 129.500 146.556 129.483 L 57 129.466 57 132.551 M 276 132.609 C 276 135.712, 276.059 135.748, 282.250 136.425 C 296.731 138.008, 301.928 141.518, 303.907 151.053 C 304.726 154.999, 304.969 185.291, 304.773 259.019 L 304.500 361.500 302.289 366.289 C 299.573 372.172, 294.670 374.688, 283.808 375.771 L 276.500 376.500 276.205 380 L 275.909 383.500 325.455 383.500 L 375 383.500 375 379.898 L 375 376.296 366.250 375.703 C 355.408 374.969, 348.598 372.948, 344.841 369.347 C 339.272 364.012, 339 361.241, 339 309.818 L 339 263 355.818 263 C 376.554 263, 381.549 264.179, 387.643 270.508 C 392.990 276.063, 395.530 282.999, 397.702 297.984 L 399.444 310 403.756 310 L 408.069 310 407.565 305.250 C 405.888 289.441, 405.111 219.257, 406.529 211.699 L 407.223 208 402.798 208 L 398.374 208 396.734 218.750 C 393.580 239.420, 389.559 247.386, 379.757 252.382 C 374.204 255.213, 373.431 255.326, 356.507 255.791 L 339 256.273 339 206.186 C 339 153.259, 339.371 148.090, 343.519 143.160 C 347.292 138.676, 351.681 137.816, 373.500 137.289 C 411.412 136.374, 424.680 139.918, 433.740 153.382 C 438.775 160.864, 442.165 174.091, 445.494 199.250 L 446.123 204 450.108 204 L 454.093 204 453.434 187.750 C 452.842 173.143, 454.219 136.961, 455.573 131.561 L 456.090 129.500 366.045 129.488 L 276 129.476 276 132.609" stroke="none" fill="#8c5cf4" fill-rule="evenodd"/></svg>